<mxfile host="app.diagrams.net" modified="2020-12-21T11:04:27.128Z" agent="5.0 (Windows NT 10.0; Win64; x64) AppleWebKit/537.36 (KHTML, like Gecko) Chrome/87.0.4280.88 Safari/537.36 Edg/87.0.664.66" etag="ivGQ6Xujhyad7RCHmsb8" version="14.1.1" type="github">
  <diagram id="4QkdIxG0URYa0wG0CFMC" name="Page-1">
    <mxGraphModel dx="852" dy="588" grid="1" gridSize="10" guides="1" tooltips="1" connect="1" arrows="1" fold="1" page="1" pageScale="1" pageWidth="850" pageHeight="1100" math="0" shadow="0">
      <root>
        <mxCell id="0" />
        <mxCell id="1" parent="0" />
        <mxCell id="pqEjrR8b5XUiWW1hn1MZ-1" value="Controller" style="shape=folder;fontStyle=1;spacingTop=10;tabWidth=40;tabHeight=14;tabPosition=left;html=1;" vertex="1" parent="1">
          <mxGeometry x="220" y="320" width="70" height="50" as="geometry" />
        </mxCell>
        <mxCell id="pqEjrR8b5XUiWW1hn1MZ-2" value="View" style="shape=folder;fontStyle=1;spacingTop=10;tabWidth=40;tabHeight=14;tabPosition=left;html=1;" vertex="1" parent="1">
          <mxGeometry x="480" y="400" width="70" height="50" as="geometry" />
        </mxCell>
        <mxCell id="pqEjrR8b5XUiWW1hn1MZ-3" value="DataService" style="shape=folder;fontStyle=1;spacingTop=10;tabWidth=40;tabHeight=14;tabPosition=left;html=1;" vertex="1" parent="1">
          <mxGeometry x="360" y="540" width="70" height="50" as="geometry" />
        </mxCell>
        <mxCell id="pqEjrR8b5XUiWW1hn1MZ-4" value="DataAccessor" style="shape=folder;fontStyle=1;spacingTop=10;tabWidth=40;tabHeight=14;tabPosition=left;html=1;" vertex="1" parent="1">
          <mxGeometry x="342.5" y="450" width="105" height="50" as="geometry" />
        </mxCell>
        <mxCell id="pqEjrR8b5XUiWW1hn1MZ-5" value="Entity" style="shape=folder;fontStyle=1;spacingTop=10;tabWidth=40;tabHeight=14;tabPosition=left;html=1;" vertex="1" parent="1">
          <mxGeometry x="360" y="650" width="70" height="50" as="geometry" />
        </mxCell>
        <mxCell id="pqEjrR8b5XUiWW1hn1MZ-6" value="Helper" style="shape=folder;fontStyle=1;spacingTop=10;tabWidth=40;tabHeight=14;tabPosition=left;html=1;" vertex="1" parent="1">
          <mxGeometry x="200" y="450" width="70" height="50" as="geometry" />
        </mxCell>
        <mxCell id="pqEjrR8b5XUiWW1hn1MZ-7" value="Sentence" style="shape=folder;fontStyle=1;spacingTop=10;tabWidth=40;tabHeight=14;tabPosition=left;html=1;" vertex="1" parent="1">
          <mxGeometry x="390" y="320" width="70" height="50" as="geometry" />
        </mxCell>
        <mxCell id="pqEjrR8b5XUiWW1hn1MZ-8" value="&amp;lt;&amp;lt;import&amp;gt;&amp;gt;" style="endArrow=open;endSize=12;dashed=1;html=1;exitX=0.4;exitY=1.02;exitDx=0;exitDy=0;exitPerimeter=0;entryX=0.414;entryY=-0.04;entryDx=0;entryDy=0;entryPerimeter=0;" edge="1" parent="1" source="pqEjrR8b5XUiWW1hn1MZ-3" target="pqEjrR8b5XUiWW1hn1MZ-5">
          <mxGeometry width="160" relative="1" as="geometry">
            <mxPoint x="420" y="590" as="sourcePoint" />
            <mxPoint x="580" y="590" as="targetPoint" />
          </mxGeometry>
        </mxCell>
        <mxCell id="pqEjrR8b5XUiWW1hn1MZ-10" value="&amp;lt;&amp;lt;import&amp;gt;&amp;gt;" style="endArrow=open;endSize=12;dashed=1;html=1;exitX=0.5;exitY=1;exitDx=0;exitDy=0;exitPerimeter=0;" edge="1" parent="1" source="pqEjrR8b5XUiWW1hn1MZ-4" target="pqEjrR8b5XUiWW1hn1MZ-3">
          <mxGeometry width="160" relative="1" as="geometry">
            <mxPoint x="397.9999999999998" y="601" as="sourcePoint" />
            <mxPoint x="398.98" y="658" as="targetPoint" />
          </mxGeometry>
        </mxCell>
        <mxCell id="pqEjrR8b5XUiWW1hn1MZ-11" value="&amp;lt;&amp;lt;import&amp;gt;&amp;gt;" style="endArrow=open;endSize=12;dashed=1;html=1;exitX=0;exitY=0;exitDx=0;exitDy=50;exitPerimeter=0;entryX=0;entryY=0;entryDx=20;entryDy=0;entryPerimeter=0;" edge="1" parent="1" source="pqEjrR8b5XUiWW1hn1MZ-1" target="pqEjrR8b5XUiWW1hn1MZ-6">
          <mxGeometry width="160" relative="1" as="geometry">
            <mxPoint x="405" y="510" as="sourcePoint" />
            <mxPoint x="405" y="550" as="targetPoint" />
          </mxGeometry>
        </mxCell>
        <mxCell id="pqEjrR8b5XUiWW1hn1MZ-12" value="&amp;lt;&amp;lt;import&amp;gt;&amp;gt;" style="endArrow=open;endSize=12;dashed=1;html=1;exitX=0.25;exitY=1;exitDx=0;exitDy=0;exitPerimeter=0;entryX=0.6;entryY=0.307;entryDx=0;entryDy=0;entryPerimeter=0;" edge="1" parent="1" source="pqEjrR8b5XUiWW1hn1MZ-7" target="pqEjrR8b5XUiWW1hn1MZ-4">
          <mxGeometry width="160" relative="1" as="geometry">
            <mxPoint x="405" y="510" as="sourcePoint" />
            <mxPoint x="405" y="550" as="targetPoint" />
          </mxGeometry>
        </mxCell>
        <mxCell id="pqEjrR8b5XUiWW1hn1MZ-14" value="&amp;lt;&amp;lt;import&amp;gt;&amp;gt;" style="endArrow=open;endSize=12;dashed=1;html=1;exitX=0.75;exitY=1;exitDx=0;exitDy=0;exitPerimeter=0;entryX=0;entryY=0;entryDx=40;entryDy=0;entryPerimeter=0;" edge="1" parent="1" source="pqEjrR8b5XUiWW1hn1MZ-1" target="pqEjrR8b5XUiWW1hn1MZ-4">
          <mxGeometry width="160" relative="1" as="geometry">
            <mxPoint x="280" y="380" as="sourcePoint" />
            <mxPoint x="275" y="443.9999999999999" as="targetPoint" />
          </mxGeometry>
        </mxCell>
        <mxCell id="pqEjrR8b5XUiWW1hn1MZ-15" value="&amp;lt;&amp;lt;import&amp;gt;&amp;gt;" style="endArrow=open;endSize=12;dashed=1;html=1;exitX=0;exitY=0;exitDx=0;exitDy=41;exitPerimeter=0;entryX=0;entryY=0;entryDx=70;entryDy=50;entryPerimeter=0;" edge="1" parent="1" source="pqEjrR8b5XUiWW1hn1MZ-3" target="pqEjrR8b5XUiWW1hn1MZ-6">
          <mxGeometry width="160" relative="1" as="geometry">
            <mxPoint x="290" y="390" as="sourcePoint" />
            <mxPoint x="275" y="474" as="targetPoint" />
          </mxGeometry>
        </mxCell>
        <mxCell id="pqEjrR8b5XUiWW1hn1MZ-16" value="&amp;lt;&amp;lt;import&amp;gt;&amp;gt;" style="endArrow=open;endSize=12;dashed=1;html=1;entryX=0;entryY=0;entryDx=70;entryDy=14;entryPerimeter=0;exitX=0;exitY=0;exitDx=0;exitDy=32;exitPerimeter=0;" edge="1" parent="1" source="pqEjrR8b5XUiWW1hn1MZ-7" target="pqEjrR8b5XUiWW1hn1MZ-6">
          <mxGeometry width="160" relative="1" as="geometry">
            <mxPoint x="380" y="360" as="sourcePoint" />
            <mxPoint x="425" y="474" as="targetPoint" />
          </mxGeometry>
        </mxCell>
      </root>
    </mxGraphModel>
  </diagram>
</mxfile>
